<?xml version="1.0" encoding="UTF-8" standalone="no"?><svg xmlns="http://www.w3.org/2000/svg" xmlns:xlink="http://www.w3.org/1999/xlink" contentStyleType="text/css" height="80px" preserveAspectRatio="none" style="width:662px;height:80px;background:#FFFFFF;" version="1.1" viewBox="0 0 662 80" width="662px" zoomAndPan="magnify"><defs/><g><rect fill="#F1E5E5" height="33.6094" style="stroke:none;stroke-width:1.0;" width="8" x="20" y="29"/><rect fill="#F1E5E5" height="33.6094" style="stroke:none;stroke-width:1.0;" width="8" x="48" y="29"/><rect fill="#F1E5E5" height="33.6094" style="stroke:none;stroke-width:1.0;" width="8" x="76" y="29"/><rect fill="#F1E5E5" height="33.6094" style="stroke:none;stroke-width:1.0;" width="8" x="104" y="29"/><rect fill="#F1E5E5" height="33.6094" style="stroke:none;stroke-width:1.0;" width="8" x="132" y="29"/><rect fill="#F1E5E5" height="33.6094" style="stroke:none;stroke-width:1.0;" width="8" x="160" y="29"/><rect fill="#F1E5E5" height="33.6094" style="stroke:none;stroke-width:1.0;" width="8" x="188" y="29"/><rect fill="#F1E5E5" height="33.6094" style="stroke:none;stroke-width:1.0;" width="8" x="216" y="29"/><rect fill="#F1E5E5" height="33.6094" style="stroke:none;stroke-width:1.0;" width="8" x="244" y="29"/><rect fill="#F1E5E5" height="33.6094" style="stroke:none;stroke-width:1.0;" width="8" x="272" y="29"/><rect fill="#F1E5E5" height="33.6094" style="stroke:none;stroke-width:1.0;" width="8" x="300" y="29"/><rect fill="#F1E5E5" height="33.6094" style="stroke:none;stroke-width:1.0;" width="8" x="328" y="29"/><rect fill="#F1E5E5" height="33.6094" style="stroke:none;stroke-width:1.0;" width="8" x="356" y="29"/><rect fill="#F1E5E5" height="33.6094" style="stroke:none;stroke-width:1.0;" width="8" x="384" y="29"/><rect fill="#F1E5E5" height="33.6094" style="stroke:none;stroke-width:1.0;" width="8" x="412" y="29"/><rect fill="#F1E5E5" height="33.6094" style="stroke:none;stroke-width:1.0;" width="8" x="440" y="29"/><rect fill="#F1E5E5" height="33.6094" style="stroke:none;stroke-width:1.0;" width="8" x="468" y="29"/><rect fill="#F1E5E5" height="33.6094" style="stroke:none;stroke-width:1.0;" width="8" x="496" y="29"/><rect fill="#F1E5E5" height="33.6094" style="stroke:none;stroke-width:1.0;" width="8" x="524" y="29"/><rect fill="#F1E5E5" height="33.6094" style="stroke:none;stroke-width:1.0;" width="8" x="552" y="29"/><rect fill="#F1E5E5" height="33.6094" style="stroke:none;stroke-width:1.0;" width="8" x="580" y="29"/><rect fill="#F1E5E5" height="33.6094" style="stroke:none;stroke-width:1.0;" width="8" x="608" y="29"/><rect fill="#F1E5E5" height="33.6094" style="stroke:none;stroke-width:1.0;" width="8" x="636" y="29"/><text fill="#000000" font-family="Serif" font-size="10" lengthAdjust="spacing" textLength="14" x="5" y="25.2822">33</text><text fill="#000000" font-family="Serif" font-size="10" lengthAdjust="spacing" textLength="14" x="33" y="25.2822">34</text><text fill="#000000" font-family="Serif" font-size="10" lengthAdjust="spacing" textLength="13" x="61" y="25.2822">35</text><text fill="#000000" font-family="Serif" font-size="10" lengthAdjust="spacing" textLength="14" x="89" y="25.2822">36</text><text fill="#000000" font-family="Serif" font-size="10" lengthAdjust="spacing" textLength="14" x="117" y="25.2822">37</text><text fill="#000000" font-family="Serif" font-size="10" lengthAdjust="spacing" textLength="14" x="145" y="25.2822">38</text><text fill="#000000" font-family="Serif" font-size="10" lengthAdjust="spacing" textLength="14" x="173" y="25.2822">39</text><text fill="#000000" font-family="Serif" font-size="10" lengthAdjust="spacing" textLength="14" x="201" y="25.2822">40</text><text fill="#000000" font-family="Serif" font-size="10" lengthAdjust="spacing" textLength="14" x="229" y="25.2822">41</text><text fill="#000000" font-family="Serif" font-size="10" lengthAdjust="spacing" textLength="13" x="257" y="25.2822">42</text><text fill="#000000" font-family="Serif" font-size="10" lengthAdjust="spacing" textLength="14" x="285" y="25.2822">43</text><text fill="#000000" font-family="Serif" font-size="10" lengthAdjust="spacing" textLength="14" x="313" y="25.2822">44</text><text fill="#000000" font-family="Serif" font-size="10" lengthAdjust="spacing" textLength="13" x="341" y="25.2822">45</text><text fill="#000000" font-family="Serif" font-size="10" lengthAdjust="spacing" textLength="14" x="369" y="25.2822">46</text><text fill="#000000" font-family="Serif" font-size="10" lengthAdjust="spacing" textLength="14" x="397" y="25.2822">47</text><text fill="#000000" font-family="Serif" font-size="10" lengthAdjust="spacing" textLength="14" x="425" y="25.2822">48</text><text fill="#000000" font-family="Serif" font-size="10" lengthAdjust="spacing" textLength="14" x="453" y="25.2822">49</text><text fill="#000000" font-family="Serif" font-size="10" lengthAdjust="spacing" textLength="13" x="481" y="25.2822">50</text><text fill="#000000" font-family="Serif" font-size="10" lengthAdjust="spacing" textLength="13" x="509" y="25.2822">51</text><text fill="#000000" font-family="Serif" font-size="10" lengthAdjust="spacing" textLength="12" x="537" y="25.2822">52</text><text fill="#000000" font-family="Serif" font-size="10" lengthAdjust="spacing" textLength="7" x="565" y="25.2822">1</text><text fill="#000000" font-family="Serif" font-size="10" lengthAdjust="spacing" textLength="6" x="593" y="25.2822">2</text><text fill="#000000" font-family="Serif" font-size="10" lengthAdjust="spacing" textLength="7" x="621" y="25.2822">3</text><text fill="#000000" font-family="Serif" font-size="10" lengthAdjust="spacing" textLength="7" x="649" y="25.2822">4</text><line style="stroke:#C0C0C0;stroke-width:1.0;" x1="0" x2="0" y1="16" y2="62.6094"/><line style="stroke:#C0C0C0;stroke-width:1.0;" x1="28" x2="28" y1="16" y2="62.6094"/><line style="stroke:#C0C0C0;stroke-width:1.0;" x1="56" x2="56" y1="16" y2="62.6094"/><line style="stroke:#C0C0C0;stroke-width:1.0;" x1="84" x2="84" y1="16" y2="62.6094"/><line style="stroke:#C0C0C0;stroke-width:1.0;" x1="112" x2="112" y1="16" y2="62.6094"/><line style="stroke:#C0C0C0;stroke-width:1.0;" x1="140" x2="140" y1="16" y2="62.6094"/><line style="stroke:#C0C0C0;stroke-width:1.0;" x1="168" x2="168" y1="16" y2="62.6094"/><line style="stroke:#C0C0C0;stroke-width:1.0;" x1="196" x2="196" y1="16" y2="62.6094"/><line style="stroke:#C0C0C0;stroke-width:1.0;" x1="224" x2="224" y1="16" y2="62.6094"/><line style="stroke:#C0C0C0;stroke-width:1.0;" x1="252" x2="252" y1="16" y2="62.6094"/><line style="stroke:#C0C0C0;stroke-width:1.0;" x1="280" x2="280" y1="16" y2="62.6094"/><line style="stroke:#C0C0C0;stroke-width:1.0;" x1="308" x2="308" y1="16" y2="62.6094"/><line style="stroke:#C0C0C0;stroke-width:1.0;" x1="336" x2="336" y1="16" y2="62.6094"/><line style="stroke:#C0C0C0;stroke-width:1.0;" x1="364" x2="364" y1="16" y2="62.6094"/><line style="stroke:#C0C0C0;stroke-width:1.0;" x1="392" x2="392" y1="16" y2="62.6094"/><line style="stroke:#C0C0C0;stroke-width:1.0;" x1="420" x2="420" y1="16" y2="62.6094"/><line style="stroke:#C0C0C0;stroke-width:1.0;" x1="448" x2="448" y1="16" y2="62.6094"/><line style="stroke:#C0C0C0;stroke-width:1.0;" x1="476" x2="476" y1="16" y2="62.6094"/><line style="stroke:#C0C0C0;stroke-width:1.0;" x1="504" x2="504" y1="16" y2="62.6094"/><line style="stroke:#C0C0C0;stroke-width:1.0;" x1="532" x2="532" y1="16" y2="62.6094"/><line style="stroke:#C0C0C0;stroke-width:1.0;" x1="560" x2="560" y1="16" y2="62.6094"/><line style="stroke:#C0C0C0;stroke-width:1.0;" x1="588" x2="588" y1="16" y2="62.6094"/><line style="stroke:#C0C0C0;stroke-width:1.0;" x1="616" x2="616" y1="16" y2="62.6094"/><line style="stroke:#C0C0C0;stroke-width:1.0;" x1="644" x2="644" y1="16" y2="62.6094"/><line style="stroke:#C0C0C0;stroke-width:1.0;" x1="660" x2="660" y1="16" y2="62.6094"/><line style="stroke:#C0C0C0;stroke-width:1.0;" x1="0" x2="0" y1="0" y2="16"/><line style="stroke:#C0C0C0;stroke-width:1.0;" x1="68" x2="68" y1="0" y2="16"/><text fill="#000000" font-family="Serif" font-size="12" font-weight="bold" lengthAdjust="spacing" textLength="67" x="0.5" y="11.2676">Aug 2022</text><line style="stroke:#C0C0C0;stroke-width:1.0;" x1="188" x2="188" y1="0" y2="16"/><text fill="#000000" font-family="Serif" font-size="12" font-weight="bold" lengthAdjust="spacing" textLength="66" x="95" y="11.2676">Sep 2022</text><line style="stroke:#C0C0C0;stroke-width:1.0;" x1="312" x2="312" y1="0" y2="16"/><text fill="#000000" font-family="Serif" font-size="12" font-weight="bold" lengthAdjust="spacing" textLength="65" x="217.5" y="11.2676">Oct 2022</text><line style="stroke:#C0C0C0;stroke-width:1.0;" x1="432" x2="432" y1="0" y2="16"/><text fill="#000000" font-family="Serif" font-size="12" font-weight="bold" lengthAdjust="spacing" textLength="68" x="338" y="11.2676">Nov 2022</text><line style="stroke:#C0C0C0;stroke-width:1.0;" x1="556" x2="556" y1="0" y2="16"/><text fill="#000000" font-family="Serif" font-size="12" font-weight="bold" lengthAdjust="spacing" textLength="67" x="460.5" y="11.2676">Dec 2022</text><line style="stroke:#C0C0C0;stroke-width:1.0;" x1="660" x2="660" y1="0" y2="16"/><text fill="#000000" font-family="Serif" font-size="12" font-weight="bold" lengthAdjust="spacing" textLength="61" x="577.5" y="11.2676">Jan 2023</text><line style="stroke:#C0C0C0;stroke-width:1.0;" x1="0" x2="660" y1="0" y2="0"/><line style="stroke:#C0C0C0;stroke-width:1.0;" x1="0" x2="660" y1="16" y2="16"/><line style="stroke:#C0C0C0;stroke-width:1.0;" x1="0" x2="660" y1="29" y2="29"/><rect fill="#E2E2F0" height="12.8047" style="stroke:none;stroke-width:1.0;" width="19" x="2" y="31"/><line style="stroke:#181818;stroke-width:1.0;" x1="2" x2="19" y1="31" y2="31"/><line style="stroke:#181818;stroke-width:1.0;" x1="2" x2="19" y1="43.8047" y2="43.8047"/><line style="stroke:#181818;stroke-width:1.0;" x1="2" x2="2" y1="31" y2="43.8047"/><rect fill="#E2E2F0" height="12.8047" style="stroke:none;stroke-width:1.0;" width="21" x="28" y="31"/><line style="stroke:#181818;stroke-width:1.0;" x1="29" x2="48" y1="31" y2="31"/><line style="stroke:#181818;stroke-width:1.0;" x1="29" x2="48" y1="43.8047" y2="43.8047"/><rect fill="#E2E2F0" height="12.8047" style="stroke:none;stroke-width:1.0;" width="2" x="56" y="31"/><rect fill="#FFFFFF" height="12.8047" style="stroke:none;stroke-width:1.0;" width="19" x="58" y="31"/><line style="stroke:#181818;stroke-width:1.0;" x1="57" x2="76" y1="31" y2="31"/><line style="stroke:#181818;stroke-width:1.0;" x1="57" x2="76" y1="43.8047" y2="43.8047"/><rect fill="#FFFFFF" height="12.8047" style="stroke:none;stroke-width:1.0;" width="21" x="84" y="31"/><line style="stroke:#181818;stroke-width:1.0;" x1="85" x2="104" y1="31" y2="31"/><line style="stroke:#181818;stroke-width:1.0;" x1="85" x2="104" y1="43.8047" y2="43.8047"/><rect fill="#FFFFFF" height="12.8047" style="stroke:none;stroke-width:1.0;" width="2" x="112" y="31"/><line style="stroke:#181818;stroke-width:1.0;" x1="113" x2="114" y1="31" y2="31"/><line style="stroke:#181818;stroke-width:1.0;" x1="113" x2="114" y1="43.8047" y2="43.8047"/><line style="stroke:#181818;stroke-width:1.0;" x1="114" x2="114" y1="31" y2="43.8047"/><line style="stroke:#181818;stroke-width:1.0;stroke-dasharray:2.0,3.0;" x1="23" x2="25" y1="31" y2="31"/><line style="stroke:#181818;stroke-width:1.0;stroke-dasharray:2.0,3.0;" x1="23" x2="25" y1="43.8047" y2="43.8047"/><line style="stroke:#181818;stroke-width:1.0;stroke-dasharray:2.0,3.0;" x1="51" x2="53" y1="31" y2="31"/><line style="stroke:#181818;stroke-width:1.0;stroke-dasharray:2.0,3.0;" x1="51" x2="53" y1="43.8047" y2="43.8047"/><line style="stroke:#181818;stroke-width:1.0;stroke-dasharray:2.0,3.0;" x1="79" x2="81" y1="31" y2="31"/><line style="stroke:#181818;stroke-width:1.0;stroke-dasharray:2.0,3.0;" x1="79" x2="81" y1="43.8047" y2="43.8047"/><line style="stroke:#181818;stroke-width:1.0;stroke-dasharray:2.0,3.0;" x1="107" x2="109" y1="31" y2="31"/><line style="stroke:#181818;stroke-width:1.0;stroke-dasharray:2.0,3.0;" x1="107" x2="109" y1="43.8047" y2="43.8047"/><rect fill="#E2E2F0" height="12.8047" style="stroke:none;stroke-width:1.0;" width="3" x="438" y="47.8047"/><line style="stroke:#181818;stroke-width:1.0;" x1="438" x2="439" y1="47.8047" y2="47.8047"/><line style="stroke:#181818;stroke-width:1.0;" x1="438" x2="439" y1="60.6094" y2="60.6094"/><line style="stroke:#181818;stroke-width:1.0;" x1="438" x2="438" y1="47.8047" y2="60.6094"/><rect fill="#E2E2F0" height="12.8047" style="stroke:none;stroke-width:1.0;" width="21" x="448" y="47.8047"/><line style="stroke:#181818;stroke-width:1.0;" x1="449" x2="468" y1="47.8047" y2="47.8047"/><line style="stroke:#181818;stroke-width:1.0;" x1="449" x2="468" y1="60.6094" y2="60.6094"/><rect fill="#E2E2F0" height="12.8047" style="stroke:none;stroke-width:1.0;" width="21" x="476" y="47.8047"/><line style="stroke:#181818;stroke-width:1.0;" x1="477" x2="496" y1="47.8047" y2="47.8047"/><line style="stroke:#181818;stroke-width:1.0;" x1="477" x2="496" y1="60.6094" y2="60.6094"/><rect fill="#E2E2F0" height="12.8047" style="stroke:none;stroke-width:1.0;" width="21" x="504" y="47.8047"/><line style="stroke:#181818;stroke-width:1.0;" x1="505" x2="524" y1="47.8047" y2="47.8047"/><line style="stroke:#181818;stroke-width:1.0;" x1="505" x2="524" y1="60.6094" y2="60.6094"/><rect fill="#E2E2F0" height="12.8047" style="stroke:none;stroke-width:1.0;" width="21" x="532" y="47.8047"/><line style="stroke:#181818;stroke-width:1.0;" x1="533" x2="552" y1="47.8047" y2="47.8047"/><line style="stroke:#181818;stroke-width:1.0;" x1="533" x2="552" y1="60.6094" y2="60.6094"/><rect fill="#E2E2F0" height="12.8047" style="stroke:none;stroke-width:1.0;" width="21" x="560" y="47.8047"/><line style="stroke:#181818;stroke-width:1.0;" x1="561" x2="580" y1="47.8047" y2="47.8047"/><line style="stroke:#181818;stroke-width:1.0;" x1="561" x2="580" y1="60.6094" y2="60.6094"/><rect fill="#E2E2F0" height="12.8047" style="stroke:none;stroke-width:1.0;" width="21" x="588" y="47.8047"/><line style="stroke:#181818;stroke-width:1.0;" x1="589" x2="608" y1="47.8047" y2="47.8047"/><line style="stroke:#181818;stroke-width:1.0;" x1="589" x2="608" y1="60.6094" y2="60.6094"/><rect fill="#E2E2F0" height="12.8047" style="stroke:none;stroke-width:1.0;" width="21" x="616" y="47.8047"/><line style="stroke:#181818;stroke-width:1.0;" x1="617" x2="636" y1="47.8047" y2="47.8047"/><line style="stroke:#181818;stroke-width:1.0;" x1="617" x2="636" y1="60.6094" y2="60.6094"/><rect fill="#E2E2F0" height="12.8047" style="stroke:none;stroke-width:1.0;" width="14" x="644" y="47.8047"/><line style="stroke:#181818;stroke-width:1.0;" x1="645" x2="658" y1="47.8047" y2="47.8047"/><line style="stroke:#181818;stroke-width:1.0;" x1="645" x2="658" y1="60.6094" y2="60.6094"/><line style="stroke:#181818;stroke-width:1.0;" x1="658" x2="658" y1="47.8047" y2="60.6094"/><line style="stroke:#181818;stroke-width:1.0;stroke-dasharray:2.0,3.0;" x1="443" x2="445" y1="47.8047" y2="47.8047"/><line style="stroke:#181818;stroke-width:1.0;stroke-dasharray:2.0,3.0;" x1="443" x2="445" y1="60.6094" y2="60.6094"/><line style="stroke:#181818;stroke-width:1.0;stroke-dasharray:2.0,3.0;" x1="471" x2="473" y1="47.8047" y2="47.8047"/><line style="stroke:#181818;stroke-width:1.0;stroke-dasharray:2.0,3.0;" x1="471" x2="473" y1="60.6094" y2="60.6094"/><line style="stroke:#181818;stroke-width:1.0;stroke-dasharray:2.0,3.0;" x1="499" x2="501" y1="47.8047" y2="47.8047"/><line style="stroke:#181818;stroke-width:1.0;stroke-dasharray:2.0,3.0;" x1="499" x2="501" y1="60.6094" y2="60.6094"/><line style="stroke:#181818;stroke-width:1.0;stroke-dasharray:2.0,3.0;" x1="527" x2="529" y1="47.8047" y2="47.8047"/><line style="stroke:#181818;stroke-width:1.0;stroke-dasharray:2.0,3.0;" x1="527" x2="529" y1="60.6094" y2="60.6094"/><line style="stroke:#181818;stroke-width:1.0;stroke-dasharray:2.0,3.0;" x1="555" x2="557" y1="47.8047" y2="47.8047"/><line style="stroke:#181818;stroke-width:1.0;stroke-dasharray:2.0,3.0;" x1="555" x2="557" y1="60.6094" y2="60.6094"/><line style="stroke:#181818;stroke-width:1.0;stroke-dasharray:2.0,3.0;" x1="583" x2="585" y1="47.8047" y2="47.8047"/><line style="stroke:#181818;stroke-width:1.0;stroke-dasharray:2.0,3.0;" x1="583" x2="585" y1="60.6094" y2="60.6094"/><line style="stroke:#181818;stroke-width:1.0;stroke-dasharray:2.0,3.0;" x1="611" x2="613" y1="47.8047" y2="47.8047"/><line style="stroke:#181818;stroke-width:1.0;stroke-dasharray:2.0,3.0;" x1="611" x2="613" y1="60.6094" y2="60.6094"/><line style="stroke:#181818;stroke-width:1.0;stroke-dasharray:2.0,3.0;" x1="639" x2="641" y1="47.8047" y2="47.8047"/><line style="stroke:#181818;stroke-width:1.0;stroke-dasharray:2.0,3.0;" x1="639" x2="641" y1="60.6094" y2="60.6094"/><text fill="#000000" font-family="sans-serif" font-size="11" lengthAdjust="spacing" textLength="82" x="6" y="41.2104">first milestone</text><text fill="#000000" font-family="sans-serif" font-size="11" lengthAdjust="spacing" textLength="30" x="442" y="58.0151">teste</text><line style="stroke:#C0C0C0;stroke-width:1.0;" x1="0" x2="660" y1="62.6094" y2="62.6094"/><line style="stroke:#C0C0C0;stroke-width:1.0;" x1="0" x2="0" y1="62.6094" y2="78.6094"/><line style="stroke:#C0C0C0;stroke-width:1.0;" x1="68" x2="68" y1="62.6094" y2="78.6094"/><text fill="#000000" font-family="Serif" font-size="12" font-weight="bold" lengthAdjust="spacing" textLength="67" x="0.5" y="73.877">Aug 2022</text><line style="stroke:#C0C0C0;stroke-width:1.0;" x1="188" x2="188" y1="62.6094" y2="78.6094"/><text fill="#000000" font-family="Serif" font-size="12" font-weight="bold" lengthAdjust="spacing" textLength="66" x="95" y="73.877">Sep 2022</text><line style="stroke:#C0C0C0;stroke-width:1.0;" x1="312" x2="312" y1="62.6094" y2="78.6094"/><text fill="#000000" font-family="Serif" font-size="12" font-weight="bold" lengthAdjust="spacing" textLength="65" x="217.5" y="73.877">Oct 2022</text><line style="stroke:#C0C0C0;stroke-width:1.0;" x1="432" x2="432" y1="62.6094" y2="78.6094"/><text fill="#000000" font-family="Serif" font-size="12" font-weight="bold" lengthAdjust="spacing" textLength="68" x="338" y="73.877">Nov 2022</text><line style="stroke:#C0C0C0;stroke-width:1.0;" x1="556" x2="556" y1="62.6094" y2="78.6094"/><text fill="#000000" font-family="Serif" font-size="12" font-weight="bold" lengthAdjust="spacing" textLength="67" x="460.5" y="73.877">Dec 2022</text><line style="stroke:#C0C0C0;stroke-width:1.0;" x1="660" x2="660" y1="62.6094" y2="78.6094"/><text fill="#000000" font-family="Serif" font-size="12" font-weight="bold" lengthAdjust="spacing" textLength="61" x="577.5" y="73.877">Jan 2023</text><line style="stroke:#C0C0C0;stroke-width:1.0;" x1="0" x2="660" y1="78.6094" y2="78.6094"/><!--MD5=[256737171e9758095d7a5435c21524cd]
@startgantt
saturday are closed
sunday are closed
printscale weekly
Project starts 2022-08-15
[first milestone] starts 2022-08-15 and ends 2022-09-12 and is 50% complete
[teste] starts 2022-12-02 and ends 2023-01-26 and is 100% complete
@endgantt

PlantUML version 1.2022.13beta8(Unknown compile time)
(GPL source distribution)
Java Runtime: Java(TM) SE Runtime Environment
JVM: Java HotSpot(TM) 64-Bit Server VM
Default Encoding: UTF-8
Language: en
Country: US
--></g></svg>